<?xml version="1.0" encoding="UTF-8" standalone="no"?>
<!-- Created with Inkscape (http://www.inkscape.org/) -->

<svg
   version="1.1"
   id="svg25"
   width="456"
   height="456"
   viewBox="0 0 456 456"
   sodipodi:docname="sharif_cube"
   inkscape:version="1.2.2 (732a01da63, 2022-12-09, custom)"
   xmlns:inkscape="http://www.inkscape.org/namespaces/inkscape"
   xmlns:sodipodi="http://sodipodi.sourceforge.net/DTD/sodipodi-0.dtd"
   xmlns="http://www.w3.org/2000/svg"
   xmlns:svg="http://www.w3.org/2000/svg">
  <defs
     id="defs29" />
  <sodipodi:namedview
     id="namedview27"
     pagecolor="#ffffff"
     bordercolor="#000000"
     borderopacity="0.25"
     inkscape:showpageshadow="2"
     inkscape:pageopacity="0.0"
     inkscape:pagecheckerboard="0"
     inkscape:deskcolor="#d1d1d1"
     showgrid="false"
     inkscape:zoom="1.7631579"
     inkscape:cx="134.70149"
     inkscape:cy="224.59701"
     inkscape:window-width="1920"
     inkscape:window-height="1016"
     inkscape:window-x="0"
     inkscape:window-y="27"
     inkscape:window-maximized="1"
     inkscape:current-layer="g31" />
  <g
     inkscape:groupmode="layer"
     inkscape:label="Image"
     id="g31">
    <g
       id="g241"
       transform="translate(-1.9722015,-0.37943187)">
      <path
         style="fill:#15a5f0;stroke-width:1.33333"
         d="m 211.75,433.75585 c 0.96249,-0.38516 2.11249,-0.3378 2.55556,0.1052 0.44305,0.44306 -0.34445,0.75819 -1.75,0.7003 -1.55327,-0.064 -1.8692,-0.37992 -0.80556,-0.80555 z m 46.58333,0.0277 c 0.91667,-0.36988 2.41667,-0.36988 3.33334,0 0.91666,0.36988 0.16666,0.67252 -1.66667,0.67252 -1.83333,0 -2.58333,-0.30264 -1.66667,-0.67252 z M 101.16326,393.66667 c -1.658495,-2.11475 -1.611335,-2.16191 0.50341,-0.50342 1.28333,1.00647 2.33333,2.05647 2.33333,2.33334 0,1.09738 -1.09491,0.39108 -2.83674,-1.82992 z M 368,386.16325 c 0,-0.27686 1.05,-1.32686 2.33333,-2.33333 2.11475,-1.65849 2.16191,-1.61133 0.50342,0.50341 -1.74183,2.221 -2.83675,2.92731 -2.83675,1.82992 z m -288.750545,-10.49658 -3.916122,-4.33334 4.333334,3.91612 C 83.70594,378.89983 84.612869,380 83.582788,380 c -0.229467,0 -2.179467,-1.95 -4.333333,-4.33333 z M 388,367.33333 c 2.48771,-2.56666 4.82311,-4.66666 5.18977,-4.66666 0.36667,0 -1.36873,2.1 -3.85644,4.66666 C 386.84563,369.9 384.51023,372 384.14356,372 c -0.36667,0 1.36873,-2.1 3.85644,-4.66667 z m -328.793349,-13 -2.539984,-3 3,2.53999 c 2.81926,2.38696 3.606988,3.46001 2.539984,3.46001 -0.25301,0 -1.60301,-1.35 -3,-3 z m 340.126679,0.33334 C 400.66065,353.2 402.04664,352 402.41331,352 c 0.36666,0 -0.41932,1.2 -1.74664,2.66667 -1.32732,1.46666 -2.71331,2.66666 -3.07998,2.66666 -0.36666,0 0.41932,-1.2 1.74664,-2.66666 z m -153,-11.54971 c 0.91667,-0.36988 2.41667,-0.36988 3.33334,0 0.91666,0.36988 0.16666,0.67252 -1.66667,0.67252 -1.83333,0 -2.58333,-0.30264 -1.66667,-0.67252 z m 34.75,-0.0277 c 0.9625,-0.38516 2.1125,-0.3378 2.55556,0.1052 0.44306,0.44305 -0.34445,0.75818 -1.75,0.70029 -1.55326,-0.064 -1.8692,-0.37992 -0.80556,-0.80555 z m 25.33334,0 c 0.96249,-0.38516 2.11249,-0.3378 2.55556,0.1052 0.44305,0.44305 -0.34446,0.75818 -1.75,0.70029 -1.55327,-0.064 -1.8692,-0.37992 -0.80556,-0.80555 z M 174.3036,341.7044 c 2.36697,-0.29455 6.56697,-0.29939 9.33333,-0.0107 2.76635,0.28864 0.82974,0.52963 -4.3036,0.53555 -5.13333,0.005 -7.39672,-0.23024 -5.02973,-0.52479 z m 21.36307,0.0792 c 0.91666,-0.36988 2.41666,-0.36988 3.33333,0 0.91667,0.36988 0.16667,0.67252 -1.66667,0.67252 -1.83333,0 -2.58333,-0.30264 -1.66666,-0.67252 z m 13.35721,-0.0833 c 2.39647,-0.29675 5.99647,-0.29063 8,0.0136 2.00353,0.30424 0.0428,0.54702 -4.35721,0.53954 -4.4,-0.008 -6.03926,-0.2564 -3.64279,-0.55314 z m 129.30945,0.0833 c 0.91667,-0.36988 2.41667,-0.36988 3.33334,0 0.91666,0.36988 0.16666,0.67252 -1.66667,0.67252 -1.83333,0 -2.58333,-0.30264 -1.66667,-0.67252 z m -202,-1.3694 c 1.28334,-0.33536 3.38334,-0.33536 4.66667,0 1.28333,0.33537 0.23333,0.60977 -2.33333,0.60977 -2.56667,0 -3.61667,-0.2744 -2.33334,-0.60977 z m 167.90331,-11.56724 c -1.23015,-1.36747 -3.43664,-3.02029 -4.90331,-3.67293 -1.46666,-0.65263 -6.26666,-3.86556 -10.66666,-7.13986 -4.4,-3.27428 -10.4,-7.3734 -13.33334,-9.10913 -2.93333,-1.73573 -8.33333,-4.96532 -12,-7.17685 -13.98466,-8.43479 -29.3867,-17.43207 -30.66666,-17.91431 -8.30822,-3.13016 -23.33334,-14.91245 -23.33334,-18.29736 0,-0.50905 -2.58397,-2.33711 -5.74216,-4.06233 -6.23088,-3.40376 -12.46473,-3.41518 -20.5667,-0.0376 -3.44362,1.43556 -5.48839,1.4808 -10.18275,0.22525 -12.2312,-3.27135 -29.76676,3.04447 -35.03571,12.61888 -3.16937,5.7592 -1.3454,7.05433 3.4562,2.45412 6.78975,-6.505 13.53875,-9.7192 24.51006,-11.67291 9.79853,-1.74486 10.742,-0.87841 10.85741,9.97099 0.0692,6.49977 0.77373,9.32053 3.16807,12.68307 8.25624,11.59482 22.99822,10.80093 30.51481,-1.64331 2.01741,-3.33996 4.39599,-6.07265 5.28572,-6.07265 1.42908,0 12.26135,5.73252 17.73505,9.38553 1.1,0.73411 3.8,2.22116 6,3.30455 2.2,1.08338 8.2,4.63246 13.33334,7.88682 5.13333,3.25438 14.13333,8.77207 20,12.26156 17.27508,10.27522 24.66024,15.42659 23.89381,16.66667 -0.39544,0.63985 -11.93332,0.85519 -25.63973,0.47855 -13.70642,-0.37667 -49.82075,-0.97076 -80.25408,-1.32023 -64.45171,-0.74009 -81.15959,-2.32215 -97.618581,-9.2434 -7.214753,-3.03391 -8.198412,-5.80844 -7.145352,-20.1544 2.021452,-27.53848 17.395803,-50.96567 41.726763,-63.58255 31.21203,-16.18509 64.03469,-16.51901 94.37358,-0.96009 7.33164,3.75995 14.23025,7.60132 15.33025,8.5364 1.1,0.93508 5.3,3.49707 9.33334,5.69331 4.03333,2.19624 9.22894,5.13033 11.54581,6.52021 2.31687,1.38987 9.21687,5.47808 15.33333,9.08491 6.11647,3.60682 13.82086,8.44066 17.12086,10.74186 3.3,2.30122 6.9,4.59568 8,5.09883 1.1,0.50316 6.2,3.62388 11.33333,6.93495 13.24955,8.54613 19.07469,11.497 19.93803,10.10009 0.4124,-0.66728 -4.05495,-4.38301 -9.92744,-8.2572 -5.8725,-3.87419 -10.67726,-7.70376 -10.67726,-8.51019 0,-3.23557 3.58742,-4.67104 11.93334,-4.77497 8.47912,-0.1056 8.61468,-0.16088 4.65684,-1.89903 -3.523,-1.54718 -5.299,-1.46204 -13.08042,0.62708 l -9.00392,2.41735 -6.17522,-3.2834 c -7.86928,-4.18413 -20.7003,-12.57617 -21.97687,-14.3738 -1.68211,-2.36873 -1.18989,-3.07613 5.08893,-7.31367 21.018,-14.18486 44.5748,-17.84554 65.73028,-10.21433 12.36348,4.45975 19.03692,8.70792 29.26554,18.62979 11.61145,11.26324 14.89484,18.0353 14.89484,30.72098 0,11.71579 -1.1985,15.3981 -7.52424,23.11784 -8.80891,10.75011 -27.81446,15.73384 -63.57246,16.6703 -11.358,0.29745 -13.39361,0.0133 -15.33333,-2.14336 z m 46.43003,-1.42224 c 16.53658,-2.60299 27.75456,-8.07805 33.46625,-16.33363 4.03745,-5.83564 4.49096,-7.47685 4.94844,-17.90792 0.60035,-13.68878 -0.64092,-16.73517 -12.08837,-29.66804 -12.84459,-14.51129 -32.64874,-23.69446 -51.35352,-23.81261 -17.49434,-0.11053 -34.45307,5.3552 -45.40282,14.63301 l -4.43001,3.75359 12.63031,8.28877 c 12.79588,8.39743 17.11697,9.6917 22.58562,6.76496 4.90546,-2.6253 16.15472,-1.86881 21.52016,1.44722 5.69166,3.51764 5.20075,5.72381 -0.88524,3.97837 -7.8987,-2.26532 -20.99082,-1.33599 -20.99082,1.49003 0,0.60857 5.13638,4.48906 11.41417,8.62332 9.39657,6.18812 11.13535,7.85278 9.83675,9.41752 -2.20824,2.66077 -2.76872,2.51548 -11.95634,-3.09931 -12.7295,-7.77933 -17.63477,-10.71205 -21.96125,-13.12993 -2.2,-1.2295 -6.1,-3.84175 -8.66667,-5.80502 -2.56666,-1.96325 -11.56666,-7.6019 -20,-12.53033 C 260.9,258.60631 253.1,254.02771 252,253.36005 c -12.96564,-7.86948 -35.5404,-20.13396 -41.33333,-22.45568 -11.43674,-4.58368 -26.63747,-6.55097 -42,-5.4357 -31.59034,2.29337 -60.0303,18.73601 -71.672109,41.43744 -7.085906,13.81745 -8.781613,19.54225 -9.805346,33.10344 -1.189792,15.76092 0.850953,18.10404 19.259085,22.11269 17.66053,3.84584 29.87089,4.55515 89.5517,5.20208 33.36667,0.36171 69.36667,0.9538 80,1.31577 l 19.33333,0.65814 L 292,326.65488 c -1.83333,-1.45384 -9.93333,-6.59405 -18,-11.42269 -8.06667,-4.82864 -17.66667,-10.62054 -21.33333,-12.87088 -18.15206,-11.14046 -35.78787,-21.09587 -36.75656,-20.74908 -0.59578,0.21328 -2.48355,2.47349 -4.19507,5.0227 -6.78132,10.10047 -16.42615,13.11068 -26.13584,8.15716 -6.46239,-3.29685 -11.25831,-12.44448 -10.76135,-20.52589 0.50062,-8.14063 -0.55184,-9.22587 -7.93608,-8.18333 -9.34398,1.3192 -22.2787,8.15614 -28.2373,14.92546 -6.08297,6.91063 -8.78171,6.57987 -5.74508,-0.70412 3.23841,-7.76798 6.60637,-11.76117 13.15801,-15.60069 8.03579,-4.70928 17.88472,-6.27989 27.47765,-4.38188 6.47948,1.28201 8.01388,1.17712 10.9531,-0.74872 4.72344,-3.09492 14.29085,-2.87005 19.94994,0.46888 2.52478,1.48967 6.14242,4.94787 8.03918,7.68491 2.64305,3.81392 9.14162,8.22942 27.81904,18.90188 13.40369,7.65901 29.3564,17.2508 35.45045,21.3151 6.09405,4.06431 12.99405,8.54892 15.33333,9.96582 2.33928,1.41689 6.9924,4.71689 10.34027,7.33333 l 6.08703,4.75716 18.57964,-0.81543 c 10.2188,-0.44848 21.27964,-1.24041 24.57964,-1.75985 z M 79.829927,324.33333 c -1.658495,-2.11474 -1.611335,-2.1619 0.503406,-0.50341 1.283334,1.00647 2.333334,2.05647 2.333334,2.33333 0,1.09739 -1.094915,0.39108 -2.83674,-1.82992 z M 401.4386,295.22223 c 0.064,-1.55327 0.37992,-1.8692 0.80555,-0.80556 0.38516,0.96249 0.3378,2.11249 -0.1052,2.55556 -0.44306,0.44305 -0.75819,-0.34446 -0.7003,-1.75 z m -386.666671,-32 c 0.06397,-1.55327 0.379922,-1.8692 0.805556,-0.80556 0.385162,0.96249 0.337792,2.11249 -0.105266,2.55556 -0.443056,0.44305 -0.758188,-0.34446 -0.700294,-1.75 z M 412.25993,248.66667 c 0.0272,-2.2 0.326,-2.93859 0.66406,-1.6413 0.33805,1.2973 0.31582,3.0973 -0.0495,4 -0.36524,0.90271 -0.64183,-0.1587 -0.61465,-2.3587 z M 254,244.77824 c -1.46667,-0.96171 -7.9092,-5.14605 -14.31675,-9.29855 -8.8559,-5.73917 -11.83193,-8.42096 -12.40826,-11.18149 -0.417,-1.99735 -1.65391,-7.47208 -2.7487,-12.16609 -1.09478,-4.694 -1.51106,-8.9937 -0.92506,-9.55487 1.53716,-1.47204 28.89412,-5.30819 29.8523,-4.18605 0.44247,0.51818 1.53358,8.32018 2.42468,17.3378 0.8911,9.0176 2.47655,19.2176 3.52322,22.66666 1.04668,3.44906 1.90953,6.72102 1.91748,7.27102 0.0227,1.57214 -4.38174,1.03749 -7.31891,-0.88843 z m 191.64267,-6.11157 c 0,-2.56667 0.2744,-3.61667 0.60977,-2.33334 0.33536,1.28334 0.33536,3.38334 0,4.66667 -0.33537,1.28333 -0.60977,0.23333 -0.60977,-2.33333 z M 42.771929,223.22223 c 0.06397,-1.55327 0.379922,-1.8692 0.805556,-0.80556 0.385162,0.96249 0.337792,2.11249 -0.105266,2.55556 -0.443056,0.44305 -0.758188,-0.34446 -0.700294,-1.75 z m 372.000001,0 c 0.064,-1.55327 0.37992,-1.8692 0.80555,-0.80556 0.38516,0.96249 0.3378,2.11249 -0.1052,2.55556 -0.44305,0.44305 -0.75819,-0.34446 -0.70029,-1.75 z m -81.02986,-5.48666 c -1.60854,-0.31237 -5.42275,-2.99232 -8.47606,-5.95545 l -5.55145,-5.38749 0.50955,-8.86299 c 0.80966,-14.08317 8.23737,-21.25847 22.6125,-21.84404 4.9285,-0.20076 7.14735,0.49415 11.02744,3.45364 6.97442,5.31965 8.85324,8.87791 9.07168,17.18064 0.2164,8.22448 -2.03288,12.19649 -10.57817,18.68012 -4.75417,3.60716 -10.08976,4.39123 -18.61549,2.73557 z m 16.76596,-3.13996 c 7.51218,-4.22208 11.20442,-10.56524 11.01608,-18.92529 -0.18368,-8.15268 -2.75115,-12.33513 -10.14231,-16.52205 -3.74473,-2.1213 -6.44475,-2.6759 -10.54132,-2.16524 -11.9782,1.49313 -19.50715,9.79272 -19.50715,21.50384 0,5.96518 0.60647,7.51008 4.74763,12.09382 2.61119,2.89028 6.06119,5.51031 7.66667,5.82227 6.85676,1.33239 12.199,0.75631 16.7604,-1.80735 z m 63.18845,-11.92894 c 0,-3.3 0.26003,-4.65 0.57783,-3 0.31781,1.65 0.31781,4.35 0,6 -0.3178,1.65 -0.57783,0.3 -0.57783,-3 z M 445.64267,204 c 0,-2.56667 0.2744,-3.61667 0.60977,-2.33333 0.33536,1.28333 0.33536,3.38333 0,4.66666 -0.33537,1.28334 -0.60977,0.23334 -0.60977,-2.33333 z m -278.30934,-6.16323 c -11.34228,-6.36221 -13.98534,-10.19052 -17.2936,-25.04869 -1.41825,-6.36976 -7.12918,-56.4304 -8.0755,-70.78808 -0.76334,-11.581157 -0.53235,-14.1329 1.7577,-19.417707 2.81003,-6.484738 12.98715,-16.480717 17.95896,-17.639305 1.64218,-0.382677 6.58578,-1.625193 10.98578,-2.761145 15.44121,-3.986472 62.45245,-11.708266 86.33756,-14.181307 18.10765,-1.874847 28.95764,3.403755 38.60881,18.783477 1.44573,2.303863 3.09813,11.831095 4.97193,28.666667 1.5436,13.86879 3.64802,32.71599 4.67648,41.88265 1.98136,17.65958 1.33524,26.92796 -2.24596,32.21807 -4.52118,6.67864 -10.05962,11.44829 -15.7454,13.5598 -6.39189,2.37375 -27.13553,6.22213 -33.53861,6.22213 -2.15557,0 -8.82697,0.88095 -14.82535,1.95767 -19.89645,3.57144 -49.43302,7.64841 -59.5728,8.22291 -7.69232,0.43582 -10.92306,0.0488 -14,-1.67714 z m 37.61288,-71.12278 c 8.19268,-4.99533 11.92276,-17.25429 7.72186,-25.37795 -6.91516,-13.372452 -24.86598,-14.889797 -33.23763,-2.809503 -5.12831,7.400153 -4.79639,15.824943 0.87811,22.287833 7.4511,8.48635 16.74525,10.71188 24.63766,5.89962 z m 58.71844,-15.47637 C 267.1308,107.22789 268,105.05331 268,100.3914 268,89.177949 260.23661,80 250.75145,80 c -15.90978,0 -24.1104,15.457043 -15.09926,28.4601 4.55308,6.5701 9.87193,9.08328 17.67913,8.35347 4.92973,-0.46083 6.77013,-1.45393 10.33333,-5.57595 z M 410.9266,186 c 0.0272,-2.2 0.326,-2.93859 0.66405,-1.64129 0.33806,1.29729 0.31583,3.09729 -0.0495,4 -0.36524,0.9027 -0.64183,-0.15871 -0.61466,-2.35871 z m 31.95059,-3.33333 c 0,-1.83334 0.30264,-2.58334 0.67252,-1.66667 0.36988,0.91667 0.36988,2.41667 0,3.33333 -0.36988,0.91667 -0.67252,0.16667 -0.67252,-1.66666 z M 126.66667,157.19215 c -11.79737,-8.85327 -15.90274,-13.34423 -20.23127,-22.13144 -4.15045,-8.42573 -5.35748,-17.56548 -3.19476,-24.19106 0.84715,-2.5953 1.6261,-2.97786 4.55725,-2.23821 9.54849,2.4095 12.12575,2.29991 17.01796,-0.72364 l 4.91691,-3.03882 2.46696,3.04655 c 2.132,2.63292 3.13271,7.86458 2.79379,14.6059 -0.0513,1.02012 0.67417,8.52012 1.61213,16.66666 2.94617,25.58882 2.1324,27.06294 -9.93897,18.00406 z m 9.9508,-0.59884 c 0.0975,-2.15966 -0.56596,-10.22664 -1.47442,-17.92664 -0.90845,-7.7 -1.68728,-16.80093 -1.73072,-20.22429 -0.0435,-3.42335 -0.44319,-7.17335 -0.88832,-8.33333 -1.00818,-2.62729 -5.68152,-2.66147 -9.11218,-0.0666 -3.03143,2.29285 -8.42145,2.5216 -13.54215,0.57471 -4.98807,-1.89645 -6.26163,-0.18899 -6.1958,8.30669 0.10693,13.79939 8.78689,26.87922 25.89576,39.02232 5.49391,3.89932 6.82213,3.64437 7.04783,-1.35282 z m 253.87912,-28.25998 c -1.6585,-2.11474 -1.61134,-2.1619 0.50341,-0.5034 1.28333,1.00646 2.33333,2.05646 2.33333,2.33333 0,1.09738 -1.09492,0.39107 -2.83674,-1.82993 z m -75.03971,-2.66666 c -1.18096,-5.73529 -3.54647,-43.109697 -2.80449,-44.310234 0.36533,-0.591111 2.91798,-1.370016 5.67258,-1.730899 2.7546,-0.360882 6.20836,-1.036077 7.67503,-1.500433 2.06207,-0.652863 5.00947,1.375351 13,8.945777 5.68333,5.384532 10.33333,10.177871 10.33333,10.651864 0,2.556605 -6.28885,12.260535 -11.74932,18.129635 -12.49973,13.43515 -20.63828,17.04492 -22.12713,9.81429 z M 371.20665,101 l -2.53998,-3 3,2.53998 c 2.81925,2.38696 3.60698,3.46002 2.53998,3.46002 -0.25301,0 -1.60301,-1.35 -3,-3 z M 106.5515,98.564253 c -8.242893,-4.89392 -10.445724,-16.64954 -4.45417,-23.770104 7.92886,-9.422909 22.27005,-7.816978 26.58913,2.977458 5.94429,14.856248 -8.8022,28.708483 -22.13496,20.792646 z m 299.32182,-6.897586 -2.53999,-3 3,2.539984 c 2.81926,2.386957 3.60699,3.460016 2.53999,3.460016 -0.25301,0 -1.60301,-1.35 -3,-3 z m -43.30757,-2 L 359.33333,86 363,89.232419 c 2.01667,1.77783 3.66667,3.42783 3.66667,3.666666 0,1.045699 -1.07974,0.194634 -4.10092,-3.232418 z m -13.33334,-12 L 346,74 l 3.66667,3.232419 c 2.01666,1.77783 3.66666,3.42783 3.66666,3.666666 0,1.045699 -1.07973,0.194634 -4.10092,-3.232418 z M 68.666667,69.333333 C 71.530991,66.4 74.174528,64 74.541195,64 74.907861,64 72.864324,66.4 70,69.333333 c -2.864324,2.933334 -5.507861,5.333334 -5.874528,5.333334 -0.366667,0 1.676871,-2.4 4.541195,-5.333334 z M 321,71.116959 c 0.91667,-0.369883 2.41667,-0.369883 3.33333,0 0.91667,0.369884 0.16667,0.672514 -1.66666,0.672514 -1.83334,0 -2.58334,-0.30263 -1.66667,-0.672514 z M 96,63.496593 c 0,-0.276874 1.05,-1.326874 2.333333,-2.333333 2.114737,-1.658495 2.161897,-1.611335 0.503407,0.503407 C 97.094915,63.887664 96,64.593972 96,63.496593 Z m 235.33333,-6.16326 C 331.78656,56.6 332.42197,56 332.74536,56 c 0.32339,0 0.58797,0.6 0.58797,1.333333 0,0.733334 -0.63541,1.333334 -1.41202,1.333334 -0.77662,0 -1.0412,-0.6 -0.58798,-1.333334 z M 107.75,56.422515 c 0.9625,-0.385162 2.1125,-0.337792 2.55556,0.105266 0.44305,0.443056 -0.34445,0.758188 -1.75,0.700294 -1.55326,-0.06397 -1.8692,-0.379922 -0.80556,-0.805556 z M 355.82992,40.333333 c -1.65849,-2.114741 -1.61133,-2.161901 0.50341,-0.503406 2.221,1.741825 2.92731,2.83674 1.82992,2.83674 -0.27686,0 -1.32686,-1.05 -2.33333,-2.333334 z M 223.66667,33.725689 c 1.65,-0.317804 4.35,-0.317804 6,0 1.65,0.317804 0.3,0.577826 -3,0.577826 -3.3,0 -4.65,-0.260022 -3,-0.577826 z m 96,0.05793 c 0.91666,-0.369883 2.41666,-0.369883 3.33333,0 0.91667,0.369884 0.16667,0.672514 -1.66667,0.672514 -1.83333,0 -2.58333,-0.30263 -1.66666,-0.672514 z m -128,-29.3333333 c 0.91666,-0.369883 2.41666,-0.369883 3.33333,0 0.91667,0.3698831 0.16667,0.6725147 -1.66667,0.6725147 -1.83333,0 -2.58333,-0.3026316 -1.66666,-0.6725147 z m 72,0 c 0.91666,-0.369883 2.41666,-0.369883 3.33333,0 0.91667,0.3698831 0.16667,0.6725147 -1.66667,0.6725147 -1.83333,0 -2.58333,-0.3026316 -1.66666,-0.6725147 z"
         id="path247" />
      <path
         style="fill:#0864a1;stroke-width:1.33333"
         d="m 254.22223,453.77777 c -1.36526,-1.36525 -1.05411,-16.31105 0.39598,-19.02056 0.8619,-1.61048 3.57528,-2.70464 8.2425,-3.32377 19.27826,-2.55735 46.97748,-11.41897 63.80596,-20.41303 13.50357,-7.21704 37.33333,-22.66 37.33333,-24.194 0,-0.59706 1.17668,-1.62726 2.61483,-2.28933 5.28654,-2.43368 25.71288,-22.55321 33.55964,-33.05556 C 435.28741,304.48527 449.38203,253.628 443.07993,196.66667 440.57372,174.0142 437.0026,158.31163 430.64749,142 c -5.22509,-13.41126 -7.59178,-18.54293 -12.09853,-26.23311 -2.8686,-4.89487 -5.21563,-9.51823 -5.21563,-10.27412 0,-1.68292 -5.16305,-9.388917 -10.68828,-15.952526 C 378.45237,60.800919 373.13981,55.311505 359.66417,45.128572 343.99587,33.288739 336.06937,28.933968 311.33333,18.575916 302.60947,14.922857 279.45355,8.7190932 266.66667,6.6091557 c -5.5,-0.9075442 -12.7,-2.1289136 -16,-2.7141542 C 244.73788,2.8435564 244.75371,2.8365756 252,3.3068152 c 17.17655,1.1146508 39.92921,6.4594939 62.66667,14.7210728 8.81509,3.202932 27.76626,12.641836 31.82989,15.853331 1.93849,1.531997 4.50009,3.385448 5.69245,4.118781 13.86782,8.529079 37.61842,30.860928 45.64632,42.919599 1.55723,2.339113 5.32743,7.439113 8.3782,11.333333 3.05079,3.894221 7.17247,10.080398 9.15932,13.747068 9.7526,17.99817 10.47982,19.51925 16.57406,34.66667 6.42813,15.97736 11.20336,37.45844 13.48614,60.66666 1.63744,16.64736 0.47946,46.54186 -2.2725,58.66667 -4.33824,19.11381 -6.37146,26.31532 -9.3638,33.16591 -1.72155,3.94125 -3.13008,7.75056 -3.13008,8.46513 0,1.82805 -11.41207,24.36581 -16.39012,32.36896 -10.54943,16.96016 -28.49918,37.56483 -42.29019,48.54525 -3.30749,2.63346 -7.20749,5.89547 -8.66667,7.24894 -10.74346,9.96522 -51.1529,31.54176 -66.65302,35.58922 -2.2,0.57448 -8.5565,2.28199 -14.12556,3.79448 -5.56906,1.51248 -13.53592,3.15079 -17.70415,3.6407 -4.16824,0.48989 -7.82672,1.29216 -8.12996,1.78282 -0.30324,0.49066 -0.67732,5.20607 -0.83128,10.47868 -0.15396,5.27262 -0.38897,9.58658 -0.52227,9.58658 -0.13333,0 -0.64234,-0.4 -1.13122,-0.8889 z M 217.33333,444 c 0,-5.13333 -0.45,-9.39007 -1,-9.4594 -0.55,-0.0693 -4.9,-0.29143 -9.66666,-0.49352 C 183.17495,433.05105 140.37956,418.28076 114.9814,402.40304 95.212375,390.0444 63.506393,361.12585 53.872631,346.66667 52.162531,344.1 48.84828,339.3 46.507629,336 42.189127,329.91149 26.666667,300.34076 26.666667,298.20239 c 0,-0.64171 -2.041228,-6.64976 -4.536063,-13.35123 C 14.439707,264.19235 11.733265,247.68536 11.497779,220 c -0.18059,-21.23139 1.599496,-37.66145 5.850534,-54 1.526416,-5.86667 3.345578,-12.89471 4.04258,-15.61787 2.019362,-7.88956 7.420654,-19.64035 19.474732,-42.36833 5.734468,-10.812337 21.952706,-31.056355 36.352684,-45.376341 14.057319,-13.97923 33.908921,-29.304126 37.960061,-29.304126 0.8919,0 2.19163,-0.540997 2.8883,-1.202216 4.13656,-3.926082 33.74638,-17.122176 45.26666,-20.173813 2.2,-0.582763 7.3,-1.948878 11.33334,-3.03581 C 178.7,7.8345621 184.7,6.5406327 188,6.0460953 c 3.3,-0.4945373 7.8,-1.4169734 10,-2.049858 5.25268,-1.5110653 32.89608,-2.7794676 32.08824,-1.4723514 -0.34397,0.5565554 -4.40453,1.0761637 -9.02348,1.1546849 -18.03425,0.3065785 -51.9936,6.9792622 -69.73143,13.7015502 -8.21813,3.114512 -40.98465,19.849954 -46.66666,23.834914 -32.928527,23.093734 -59.19999,55.944902 -76.494106,95.652095 -4.315797,9.90906 -10.760401,34.32558 -13.320268,50.4662 -1.958262,12.34735 -2.902262,43.94404 -1.513745,50.66667 0.605861,2.93333 1.806389,10.43333 2.66784,16.66667 0.861449,6.23333 4.194934,19.13806 7.407745,28.67718 11.193741,33.2352 27.727088,60.61363 50.317184,83.32282 13.120093,13.18926 14.007088,13.9548 31.13116,26.86846 C 130.12436,412.58572 181.78791,432 207.22171,432 c 5.13989,0 8.99006,0.65309 9.82548,1.66667 1.60432,1.94645 2.76345,19.6736 1.28614,19.66946 -0.55,-0.002 -1,-4.2028 -1,-9.33613 z m 17.9315,-99.48937 C 234.56917,344.32771 211.8,343.82327 184.66667,343.38964 134.4392,342.58695 129.73603,342.39635 118,340.6878 101.36082,338.26545 82.741519,330.20041 76,322.49528 60.793641,305.1154 55.560188,294.32183 47.510177,263.73735 c -6.956902,-26.43143 -7.520305,-47.9618 -2.06697,-78.98904 3.436774,-19.55384 13.062122,-45.96024 21.142188,-58.00197 1.259578,-1.87716 4.628574,-7.01301 7.486658,-11.41301 2.858083,-4.4 7.790376,-11.24095 10.960652,-15.20212 3.839222,-4.797002 5.45787,-7.913841 4.847022,-9.333337 -2.098148,-4.875705 -2.163203,-17.048493 -0.111787,-20.917425 4.821473,-9.093212 12.14367,-14.273599 22.25009,-15.741724 5.27274,-0.765955 6.83643,-0.355204 12.62647,3.316732 l 6.60844,4.190952 7.37353,-4.244116 c 31.92478,-18.375529 67.48873,-26.62502 107.73201,-24.989756 22.40187,0.910288 34.72553,3.627209 46.18063,10.181149 7.18817,4.112652 10.12756,4.3804 10.12756,0.922515 0,-0.912865 1.99488,-3.593275 4.43308,-5.956467 6.56165,-6.359806 15.09608,-7.045505 24.82494,-1.994558 9.66394,5.017234 11.1863,7.699101 6.54187,11.524496 -2.62279,2.160262 -3.67861,4.456682 -4.09675,8.910329 -0.30981,3.3 -0.81976,6.870992 -1.13322,7.935537 -0.37703,1.280463 2.08186,3.279379 7.26526,5.906164 8.04494,4.076914 25.84936,20.701912 35.9842,33.600459 18.50903,23.55633 30.79635,51.48379 37.49647,85.22451 0.43687,2.2 1.29871,10.6 1.9152,18.66666 1.96577,25.7219 -1.96489,52.72612 -10.38141,71.32178 -1.93147,4.2674 -2.49666,7.54802 -1.96662,11.4151 0.84416,6.15884 -1.52274,19.29719 -4.55122,25.26312 -4.38603,8.64026 -9.85724,13.92658 -18.74031,18.107 -13.43771,6.32388 -18.64924,8.01158 -30.53813,9.88942 -5.20847,0.82268 -111.64136,1.92078 -114.4552,1.18088 z m 106.0685,-2.47783 c 40.27695,-2.8878 60.4091,-19.12225 60.24259,-48.57931 -0.0388,-6.87022 0.69731,-11.54109 2.41659,-15.33333 4.31384,-9.51519 9.05465,-27.75201 10.08293,-38.78683 1.32632,-14.23324 0.88407,-36.93685 -0.89605,-46 -4.28287,-21.80528 -9.31447,-38.57134 -15.80559,-52.66666 -2.02628,-4.4 -3.91431,-8.6 -4.19563,-9.33334 -0.91954,-2.39697 -15.63516,-23.8078 -22.14769,-32.224287 -7.27439,-9.401071 -21.78993,-23.01381 -27.69715,-25.974484 -2.2,-1.102634 -6.03174,-3.027998 -8.515,-4.278587 -4.06164,-2.045484 -4.74158,-2.068733 -6.77165,-0.231552 -5.65709,5.119596 -17.38001,-0.207077 -17.38001,-7.897147 0,-8.352773 11.68441,-11.830741 18.12121,-5.39394 1.83333,1.833334 3.60605,3.333334 3.93939,3.333334 0.33333,0 0.60606,-2.326818 0.60606,-5.170704 0,-3.830424 0.75176,-5.669855 2.90024,-7.096392 4.27595,-2.839118 2.30698,-5.99442 -6.15932,-9.870416 -5.63372,-2.579207 -8.44208,-3.133826 -12.34976,-2.438935 -5.46376,0.971605 -11.95304,6.09226 -13.82568,10.90978 -1.48864,3.829639 -4.73928,3.802776 -10.5893,-0.08751 C 283.26744,38.234471 269.36317,34.976192 246,33.826133 c -23.17824,-1.140954 -54.21851,3.112991 -74.66667,10.23277 -7.72374,2.689306 -28.13158,12.438533 -35.66401,17.037396 -3.5443,2.163944 -3.88962,2.110393 -10.56893,-1.638979 -11.95927,-6.713236 -23.8287,-3.690439 -31.60439,8.048717 -4.548748,6.867359 -5.373152,13.623764 -2.598581,21.296702 1.263425,3.493942 1.19935,4.82049 -0.333334,6.90096 -1.04358,1.416557 -5.387973,7.185631 -9.654206,12.820161 C 72.723007,119.33648 60,140.41868 60,143.17183 c 0,0.89549 -0.518245,2.19817 -1.151656,2.89484 -2.667811,2.93422 -9.527071,25.32658 -12.107631,39.52589 -2.708706,14.90443 -4.002052,45.32343 -2.256586,53.07411 0.412869,1.83333 1.076004,6.0824 1.473633,9.44237 1.044708,8.82783 7.484411,32.7366 11.283108,41.89096 0.608608,1.46667 2.228389,5.36047 3.599513,8.65288 1.371124,3.29241 4.892952,8.83832 7.826286,12.32423 2.933333,3.48592 6.937993,8.32256 8.899242,10.7481 7.15082,8.84366 26.468271,15.80091 50.759921,18.28139 27.56168,2.81439 181.58061,4.27947 213.0075,2.0262 z m -39.91297,-16.78996 c -3.34787,-2.61644 -8.00099,-5.91644 -10.34027,-7.33333 -2.33928,-1.4169 -9.23928,-5.90151 -15.33333,-9.96582 -6.09405,-4.0643 -22.04676,-13.65609 -35.45045,-21.3151 -18.67742,-10.67246 -25.17599,-15.08796 -27.81904,-18.90188 -1.89676,-2.73704 -5.5144,-6.19524 -8.03918,-7.68491 -5.65909,-3.33893 -15.2265,-3.5638 -19.94994,-0.46888 -2.93922,1.92584 -4.47362,2.03073 -10.9531,0.74872 -9.59293,-1.89801 -19.44186,-0.3274 -27.47765,4.38188 -6.55164,3.83952 -9.9196,7.83271 -13.15801,15.60069 -3.03663,7.28399 -0.33789,7.61475 5.74508,0.70412 5.9586,-6.76932 18.89332,-13.60626 28.2373,-14.92546 7.38424,-1.04254 8.4367,0.0427 7.93608,8.18333 -0.49696,8.08141 4.29896,17.22904 10.76135,20.52589 9.70969,4.95352 19.35452,1.94331 26.13584,-8.15716 1.71152,-2.54921 3.59929,-4.80942 4.19507,-5.0227 0.96869,-0.34679 18.6045,9.60862 36.75656,20.74908 3.66666,2.25034 13.26666,8.04224 21.33333,12.87088 8.06667,4.82864 16.16667,9.96885 18,11.42269 l 3.33333,2.64335 L 276,328.64009 c -10.63333,-0.36197 -46.63333,-0.95406 -80,-1.31577 -33.36667,-0.36169 -65.16667,-1.24479 -70.66667,-1.96243 -21.20168,-2.76641 -33.225183,-6.41188 -37.286075,-11.30496 -2.206611,-2.6588 -0.917099,-23.16713 1.992154,-31.68308 8.915314,-26.09685 25.669471,-42.33486 53.558741,-51.90874 21.15668,-7.2627 48.29482,-7.08496 67.06852,0.43926 5.79293,2.32172 28.36769,14.5862 41.33333,22.45568 1.1,0.66766 8.9,5.24626 17.33333,10.17467 8.43334,4.92843 17.43334,10.56708 20,12.53033 2.56667,1.96327 6.46667,4.57552 8.66667,5.80502 4.32648,2.41788 9.23175,5.3506 21.96125,13.12993 9.18762,5.61479 9.7481,5.76008 11.95634,3.09931 1.2986,-1.56474 -0.44018,-3.2294 -9.83675,-9.41752 -6.27779,-4.13426 -11.41417,-8.01475 -11.41417,-8.62332 0,-2.82602 13.09212,-3.75535 20.99082,-1.49003 6.08599,1.74544 6.5769,-0.46073 0.88524,-3.97837 -5.36544,-3.31603 -16.6147,-4.07252 -21.52016,-1.44722 -5.46865,2.92674 -9.78974,1.63247 -22.58562,-6.76496 l -12.63031,-8.28877 4.43001,-3.75359 c 10.94975,-9.27781 27.90848,-14.74349 45.40282,-14.63301 18.70478,0.11813 38.50893,9.30132 51.35352,23.81261 11.44745,12.93287 12.68872,15.97926 12.08837,29.66804 -0.45748,10.43107 -0.91099,12.07228 -4.94844,17.90792 -3.18688,4.60626 -6.38172,7.31008 -11.28885,9.55387 -13.28076,6.07261 -20.47215,7.38603 -46.75704,8.53961 L 307.50739,330 Z m 32.32727,-108.83988 c -1.60548,-0.31196 -5.05548,-2.93199 -7.66667,-5.82227 -4.14116,-4.58374 -4.74763,-6.12864 -4.74763,-12.09382 0,-11.71112 7.52895,-20.01071 19.50715,-21.50384 4.09657,-0.51066 6.79659,0.044 10.54132,2.16524 7.39116,4.18692 9.95863,8.36937 10.14231,16.52205 0.33036,14.66383 -11.92658,23.81253 -27.77648,20.73264 z M 129.56964,157.94612 c -17.10887,-12.14309 -25.78883,-25.22293 -25.89576,-39.02231 -0.0658,-8.49568 1.20773,-10.20315 6.1958,-8.30669 5.1207,1.94688 10.51072,1.71814 13.54215,-0.57472 3.43066,-2.59482 8.104,-2.56064 9.11218,0.0666 0.44513,1.15998 0.84487,4.90998 0.88832,8.33334 0.0435,3.42335 0.82227,12.52428 1.73072,20.22428 1.85231,15.69996 1.87324,21.71856 0.0771,22.1386 -0.67104,0.15692 -3.21373,-1.12969 -5.65043,-2.85915 z M 327.52636,66.855535 c 2.07697,-1.735179 2.67107,-3.375775 2.17055,-5.99405 -1.38236,-7.231357 -11.6517,-10.232229 -15.62131,-4.56481 -2.72499,3.89047 -2.62205,5.315668 0.68784,9.523513 3.26161,4.146461 8.52763,4.573649 12.76292,1.035347 z M 234.11037,2.8452524 C 233.71785,2.2101412 235.28236,1.9100571 237.58705,2.1783988 243.22979,2.8353969 244.11239,4 238.96757,4 c -2.27893,0 -4.46468,-0.5196364 -4.8572,-1.1547476 z"
         id="path245" />
      <path
         style="fill:#032751;stroke-width:1.33333"
         d="m 218,453.89784 c 1.7072,-0.71484 0.89355,-17.99104 -0.95281,-20.23117 C 216.21177,432.65309 212.3616,432 207.22171,432 181.78791,432 130.12436,412.58572 104.86248,393.53513 87.738408,380.62147 86.851413,379.85593 73.73132,366.66667 51.141224,343.95748 34.607877,316.57905 23.414136,283.34385 20.201325,273.80473 16.86784,260.9 16.006391,254.66667 15.14494,248.43333 13.944412,240.93333 13.338551,238 c -1.388517,-6.72263 -0.444517,-38.31932 1.513745,-50.66667 2.559867,-16.14062 9.004471,-40.55714 13.320268,-50.4662 C 45.46668,97.159937 71.738143,64.308769 104.66667,41.215035 110.34868,37.230075 143.1152,20.494633 151.33333,17.380121 167.21816,11.360084 202.74379,4 215.91647,4 c 2.36969,0 3.89189,-0.5647261 3.44989,-1.2798912 -0.45227,-0.7317887 1.02525,-0.6467383 3.4502,0.1986037 3.21088,1.1193194 4.87972,1.0797427 6.86952,-0.1629117 1.88516,-1.1772967 3.03627,-1.2334523 4.07112,-0.1986037 1.81473,1.8147416 8.90947,1.9019137 8.90947,0.1094696 0,-0.7333334 0.93541,-1.3333334 2.07869,-1.3333334 1.14328,0 1.75439,0.5247299 1.35801,1.1660664 -0.39636,0.6413366 2.11823,1.4942254 5.58799,1.8953083 9.35996,1.0819569 22.84005,3.4105963 29.64197,5.1205517 7.40514,1.8616003 26.38695,7.6117203 30,9.0878363 22.91952,9.363796 32.78548,14.778543 48.33084,26.525476 13.47564,10.182933 18.7882,15.672347 42.98088,44.411672 5.52523,6.563609 10.68828,14.269606 10.68828,15.952526 0,0.75589 2.34703,5.37925 5.21563,10.27412 4.50675,7.69018 6.87344,12.82185 12.09853,26.23311 11.38166,29.21327 15.74312,64.47179 12.7823,103.33333 -3.31248,43.47736 -29.68776,97.04558 -62.76784,127.48152 -6.28776,5.78516 -12.60896,11.06018 -14.04712,11.72223 -1.43815,0.66207 -2.61483,1.69227 -2.61483,2.28933 0,1.534 -23.82976,16.97696 -37.33333,24.194 -16.82848,8.99406 -44.5277,17.85568 -63.80596,20.41303 -8.60686,1.14175 -9.89723,3.17867 -9.30271,14.68473 l 0.442,8.5541 -18.66667,-0.10814 C 225.06667,454.50467 217.26667,454.20484 218,453.89777 Z M 349.72003,343.32975 c 11.88889,-1.87784 17.10042,-3.56554 30.53813,-9.88942 8.88307,-4.18042 14.35428,-9.46674 18.74031,-18.107 3.02848,-5.96593 5.39538,-19.10428 4.55122,-25.26312 -0.53004,-3.86708 0.0352,-7.1477 1.96662,-11.4151 8.41652,-18.59566 12.34718,-45.59988 10.38141,-71.32178 -0.61649,-8.06666 -1.47833,-16.46666 -1.9152,-18.66666 C 407.2824,154.92595 394.99508,126.99849 376.48605,103.44216 366.35121,90.543613 348.54679,73.918615 340.50185,69.841701 335.31845,67.214916 332.85956,65.216 333.23659,63.935537 333.55005,62.870992 334.06,59.3 334.36981,56 c 0.41814,-4.453647 1.47396,-6.750067 4.09675,-8.910329 4.64443,-3.825395 3.12207,-6.507262 -6.54187,-11.524496 -9.72886,-5.050947 -18.26329,-4.365248 -24.82494,1.994558 -2.4382,2.363192 -4.43308,5.043602 -4.43308,5.956467 0,3.457885 -2.93939,3.190137 -10.12756,-0.922515 -11.4551,-6.55394 -23.77876,-9.270861 -46.18063,-10.181149 -40.24328,-1.635264 -75.80723,6.614227 -107.73201,24.989756 l -7.37353,4.244116 -6.60844,-4.190952 c -5.79004,-3.671936 -7.35373,-4.082687 -12.62647,-3.316732 -10.10642,1.468125 -17.428618,6.648512 -22.250091,15.741724 -2.051415,3.868932 -1.98636,16.04172 0.111786,20.917425 0.610848,1.419496 -1.0078,4.536335 -4.847021,9.333337 -3.170275,3.96117 -8.102568,10.80212 -10.960651,15.20212 -2.858084,4.4 -6.22708,9.53585 -7.486658,11.41301 -8.080066,12.04173 -17.705414,38.44813 -21.142188,58.00197 -5.453335,31.02724 -4.889932,52.55761 2.06697,78.98904 8.050011,30.58448 13.283464,41.37805 28.489823,58.75793 6.741519,7.70513 25.36082,15.77017 42,18.19252 11.73603,1.70855 16.4392,1.89915 66.66667,2.70184 27.13333,0.43363 49.9025,0.93807 50.59816,1.12099 2.81384,0.7399 109.24673,-0.3582 114.4552,-1.18088 z M 314.76344,65.820188 c -3.30989,-4.207845 -3.41283,-5.633043 -0.68784,-9.523513 3.96961,-5.667419 14.23895,-2.666547 15.62131,4.56481 1.47406,7.711092 -9.81882,11.46093 -14.93347,4.958703 z"
         id="path243" />
    </g>
  </g>
</svg>
